<svg xmlns="http://www.w3.org/2000/svg" xmlns:xlink="http://www.w3.org/1999/xlink" id="svg" version="1.1" width="500" height="500" viewBox="0, 0, 500, 500">
    <g>
        <rect fill="#124c8c" x="0" y="0" width="500" height="500"></rect>
    </g>
    <g id="svgg" transform="translate(35, 135)">
        <path id="path0" d="M329.144 58.660 C 307.888 61.232,296.382 74.548,298.232 94.434 C 298.855 101.142,301.678 106.827,307.021 112.133 C 311.859 116.938,315.133 119.003,328.854 125.901 C 342.946 132.986,347.079 137.341,345.935 143.897 C 344.499 152.127,336.297 155.354,322.561 153.094 C 316.902 152.162,314.872 151.574,304.010 147.718 C 297.580 145.435,296.397 146.803,296.371 156.553 C 296.344 166.624,297.128 167.732,306.284 170.562 C 331.821 178.458,358.365 171.738,366.430 155.336 C 373.806 140.336,369.251 123.916,355.117 114.560 C 350.745 111.667,349.115 110.758,339.425 105.814 C 323.741 97.811,321.361 95.490,321.788 88.615 C 322.412 78.580,334.674 75.868,352.833 81.750 C 361.507 84.560,362.161 84.187,366.073 74.194 C 369.083 66.503,368.556 65.543,359.665 62.519 C 349.680 59.123,337.768 57.616,329.144 58.660 M61.759 60.056 C 59.398 60.274,58.123 60.977,57.391 62.462 L 56.852 63.555 56.852 116.218 C 56.852 174.766,56.704 169.565,58.410 171.000 C 59.669 172.059,60.495 172.141,69.130 172.064 C 78.397 171.982,78.576 171.946,79.713 169.938 L 80.311 168.881 80.431 152.484 C 80.592 130.352,79.459 132.226,92.879 131.896 C 106.427 131.564,112.690 129.909,120.401 124.625 C 137.074 113.200,139.302 84.184,124.613 69.779 C 119.383 64.650,112.904 61.877,102.700 60.399 C 99.967 60.004,65.454 59.714,61.759 60.056 M159.904 60.086 C 157.320 60.374,156.143 61.211,155.606 63.143 C 155.248 64.433,155.263 167.818,155.621 169.109 C 156.360 171.769,157.525 172.110,165.889 172.110 C 172.883 172.110,173.797 171.998,174.986 170.998 C 176.669 169.582,176.527 172.715,176.668 133.812 C 176.802 97.060,176.799 97.155,177.795 96.773 C 179.229 96.223,180.624 99.794,186.731 119.649 C 189.107 127.373,191.794 136.062,192.701 138.959 C 193.609 141.855,194.886 146.002,195.538 148.175 C 201.591 168.336,202.164 169.899,203.935 171.092 C 205.373 172.061,206.226 172.140,214.433 172.065 L 222.262 171.993 223.328 171.394 C 225.498 170.176,225.113 171.171,235.363 140.252 C 240.574 124.532,245.726 108.946,246.811 105.618 C 250.111 95.492,251.945 92.652,253.054 95.950 C 253.283 96.630,253.353 104.895,253.365 132.615 L 253.381 168.402 253.885 169.479 C 255.044 171.958,255.663 172.113,264.363 172.111 C 271.761 172.110,272.652 172.005,273.849 170.998 C 275.551 169.565,275.404 174.770,275.404 116.098 L 275.404 63.315 274.806 62.258 C 273.512 59.973,271.870 59.756,256.972 59.907 C 242.391 60.055,242.845 59.804,239.745 69.420 C 239.129 71.329,236.490 79.354,233.880 87.253 C 228.216 104.395,222.344 122.341,219.705 130.576 C 217.526 137.373,216.751 139.245,215.802 139.991 C 213.778 141.583,212.708 139.995,210.187 131.658 C 209.371 128.959,208.178 125.081,207.537 123.040 C 206.895 120.999,205.782 117.391,205.063 115.021 C 204.345 112.651,202.784 107.588,201.596 103.770 C 200.408 99.952,197.854 91.712,195.919 85.458 C 193.985 79.204,191.679 71.758,190.795 68.910 C 188.406 61.213,187.808 60.484,183.551 60.072 C 180.954 59.821,162.185 59.832,159.904 60.086 M94.315 79.721 C 104.344 80.776,109.874 86.363,109.874 95.440 C 109.874 106.296,103.198 111.936,89.767 112.427 C 85.049 112.600,83.449 112.352,82.201 111.256 C 80.499 109.762,80.551 110.239,80.551 96.110 L 80.551 83.423 81.149 82.239 C 82.465 79.634,86.376 78.886,94.315 79.721 " stroke="none" fill="#f6f7f9" fill-rule="evenodd"/>
    </g>
</svg>