<svg id="svg" version="1.1" xmlns="http://www.w3.org/2000/svg" xmlns:xlink="http://www.w3.org/1999/xlink" viewBox="0, 0, 400,146.28975265017667">
    <g id="svgg">
        <path id="path0" d="M297.083 10.275 C 289.197 11.189,285.096 15.690,284.716 23.848 C 284.222 34.471,290.349 40.754,300.165 39.689 C 307.993 38.840,311.882 34.002,311.905 25.083 C 311.931 15.056,306.099 9.229,297.083 10.275 M205.972 10.493 C 199.382 11.696,195.479 16.754,195.211 24.439 C 194.869 34.252,199.590 39.756,208.333 39.736 C 213.507 39.724,216.192 38.331,215.735 35.896 C 215.442 34.332,214.338 33.868,211.811 34.245 C 204.901 35.279,201.667 32.384,201.667 25.167 C 201.667 17.974,205.348 14.565,211.543 16.019 C 215.001 16.831,217.366 14.720,215.669 12.337 C 214.635 10.884,209.342 9.878,205.972 10.493 M356.083 10.608 C 350.991 11.689,348.202 16.341,349.823 21.052 C 350.699 23.600,352.250 25.030,356.736 27.430 C 359.936 29.142,361.000 30.233,361.000 31.803 C 361.000 34.187,357.870 35.082,353.477 33.955 C 350.684 33.238,349.748 33.429,349.167 34.833 C 346.974 40.128,360.660 41.806,365.411 36.825 C 368.261 33.837,368.323 29.114,365.549 26.147 C 364.458 24.979,363.151 24.077,360.498 22.660 C 356.906 20.742,355.955 19.840,355.955 18.357 C 355.955 16.147,358.218 15.202,361.759 15.934 C 364.853 16.574,366.500 15.773,366.500 13.629 C 366.500 11.151,361.017 9.561,356.083 10.608 M177.917 10.656 C 175.651 11.207,175.779 10.949,170.904 24.794 C 166.289 37.902,166.247 38.106,167.997 39.028 C 170.116 40.143,172.333 38.982,173.496 36.146 C 174.767 33.044,175.436 32.667,179.666 32.667 C 184.047 32.667,184.608 32.966,185.930 36.013 C 187.087 38.681,188.075 39.442,190.208 39.306 C 192.125 39.184,192.942 38.118,192.522 36.287 C 192.238 35.049,184.907 14.293,184.317 13.056 C 183.297 10.920,180.753 9.965,177.917 10.656 M230.432 10.686 C 228.953 11.033,228.075 11.993,227.263 14.149 C 226.012 17.473,219.636 35.793,219.485 36.499 C 218.742 39.962,224.019 40.456,225.639 37.076 C 227.125 33.978,227.262 33.745,227.817 33.376 C 228.770 32.743,229.529 32.637,232.732 32.696 C 236.928 32.772,237.347 33.019,238.598 36.154 C 239.557 38.557,240.517 39.330,242.547 39.332 C 244.245 39.334,245.167 38.534,245.167 37.057 C 245.167 36.102,237.941 15.167,236.816 12.865 C 235.827 10.839,233.364 9.998,230.432 10.686 M246.458 10.902 C 244.709 11.373,243.941 13.122,244.876 14.508 C 245.472 15.393,246.125 15.673,248.010 15.850 C 249.992 16.037,250.795 16.381,251.358 17.286 L 251.750 17.917 251.833 27.417 L 251.917 36.917 252.333 37.750 C 252.652 38.388,252.924 38.671,253.494 38.958 C 255.093 39.765,256.924 39.234,257.667 37.750 L 258.083 36.917 258.167 27.417 L 258.250 17.917 258.652 17.270 C 259.198 16.391,260.104 16.020,262.137 15.844 C 266.584 15.458,267.591 11.726,263.486 10.846 C 262.227 10.576,247.490 10.625,246.458 10.902 M270.204 10.906 C 267.810 11.672,267.637 12.798,269.579 14.973 C 271.341 16.947,271.250 16.394,271.250 25.083 C 271.250 33.634,271.309 33.245,269.753 34.996 C 268.118 36.838,268.124 38.279,269.772 39.097 C 270.790 39.602,278.434 39.581,279.417 39.070 C 280.975 38.261,281.029 36.935,279.570 35.283 C 279.069 34.715,278.454 33.837,278.204 33.333 L 277.750 32.417 277.750 25.167 C 277.750 16.732,277.713 16.967,279.337 15.091 C 280.978 13.195,281.005 11.877,279.417 11.083 C 278.551 10.651,271.430 10.514,270.204 10.906 M320.142 10.918 C 319.232 11.210,318.430 12.041,318.177 12.954 C 317.933 13.830,317.936 36.347,318.180 37.224 C 318.833 39.576,321.997 39.914,323.083 37.748 C 323.396 37.125,323.422 36.657,323.500 30.333 C 323.578 24.011,323.604 23.541,323.917 22.917 C 324.844 21.063,325.609 21.952,330.662 30.750 C 335.638 39.415,335.621 39.398,339.250 39.410 C 341.631 39.419,342.521 39.041,343.167 37.750 L 343.583 36.917 343.583 25.083 L 343.583 13.250 343.167 12.417 C 342.133 10.350,339.388 10.346,338.339 12.409 L 337.920 13.235 337.833 19.909 C 337.737 27.242,337.678 27.667,336.759 27.667 C 335.762 27.667,335.138 26.798,331.008 19.667 C 326.543 11.955,326.454 11.830,324.917 11.149 C 323.835 10.670,321.296 10.547,320.142 10.918 M143.569 11.070 C 141.644 11.908,141.678 12.090,146.235 25.478 C 151.071 39.683,150.903 39.398,154.417 39.398 C 157.882 39.398,157.681 39.746,162.681 25.066 C 167.079 12.152,167.133 11.859,165.252 11.073 C 162.469 9.911,161.059 11.294,159.243 16.966 C 155.914 27.365,155.494 28.433,154.604 28.744 C 153.524 29.123,153.076 28.140,150.233 19.167 C 148.399 13.379,148.240 12.956,147.541 12.024 C 146.756 10.975,144.842 10.516,143.569 11.070 M13.744 11.165 C 12.564 11.338,11.851 11.751,11.570 12.422 C 11.082 13.591,11.218 14.036,14.064 20.528 C 18.239 30.054,20.922 36.188,22.837 40.583 C 23.915 43.058,25.847 47.483,27.130 50.417 C 32.674 63.087,35.486 69.525,37.250 73.583 C 38.286 75.967,40.116 80.151,41.317 82.882 C 42.518 85.613,43.500 87.876,43.500 87.911 C 43.500 87.946,44.032 89.162,44.681 90.613 C 45.331 92.063,46.824 95.462,47.998 98.167 C 50.505 103.937,58.977 123.306,61.299 128.575 C 63.115 132.696,63.670 133.500,64.702 133.500 C 65.954 133.500,66.347 132.927,68.901 127.377 C 69.946 125.107,71.436 121.900,72.212 120.250 C 72.989 118.600,74.357 115.675,75.253 113.750 C 77.012 109.969,80.230 103.060,83.752 95.500 C 84.970 92.888,86.319 90.000,86.752 89.083 C 87.671 87.136,91.135 79.696,94.164 73.167 C 95.333 70.646,96.940 67.204,97.736 65.518 C 98.533 63.832,99.564 61.620,100.028 60.602 C 100.492 59.583,101.838 56.703,103.019 54.201 C 104.200 51.699,105.167 49.625,105.167 49.591 C 105.167 49.558,105.850 48.080,106.686 46.307 C 107.522 44.534,109.164 41.021,110.335 38.500 C 111.507 35.979,113.605 31.479,114.997 28.500 C 122.031 13.453,121.952 13.650,121.445 12.451 C 120.868 11.087,120.838 11.083,110.917 11.083 C 98.691 11.083,100.124 10.214,95.948 20.167 C 92.928 27.362,89.135 36.415,85.786 44.417 C 84.367 47.808,82.139 53.133,80.835 56.250 C 76.152 67.441,74.106 72.323,72.210 76.833 C 71.150 79.354,69.510 83.279,68.566 85.555 C 66.278 91.071,65.878 91.708,64.710 91.708 C 63.508 91.708,64.190 93.376,54.640 67.083 C 50.611 55.992,46.452 44.565,45.398 41.691 C 44.345 38.817,42.968 35.029,42.339 33.274 C 34.324 10.920,34.666 11.621,31.549 11.170 C 30.250 10.983,15.017 10.978,13.744 11.165 M300.605 15.927 C 306.732 17.630,307.344 31.058,301.418 33.771 C 298.272 35.211,294.588 34.235,292.830 31.494 C 290.360 27.646,290.984 19.764,293.965 17.146 C 295.633 15.682,298.097 15.229,300.605 15.927 M180.626 19.896 C 181.584 20.987,182.632 24.591,182.320 25.722 C 181.860 27.388,179.045 27.911,177.712 26.579 C 177.005 25.871,176.973 24.797,177.603 22.800 C 178.623 19.563,179.551 18.671,180.626 19.896 M233.101 19.753 C 233.876 20.527,235.000 23.662,235.000 25.047 C 235.000 26.898,232.833 27.927,230.901 26.993 C 229.411 26.271,229.340 24.959,230.610 21.606 C 231.381 19.572,232.264 18.915,233.101 19.753 M336.390 60.340 C 323.065 61.996,315.333 69.769,315.333 81.508 C 315.333 91.371,320.543 97.694,334.083 104.263 C 345.308 109.709,348.075 112.453,347.190 117.257 C 345.834 124.617,336.179 125.718,321.181 120.222 C 314.790 117.881,314.417 118.167,314.417 125.417 C 314.417 132.626,314.752 133.094,321.299 135.008 C 337.124 139.636,353.549 136.128,359.788 126.787 C 364.217 120.157,364.196 109.571,359.742 103.500 C 356.702 99.357,353.699 97.235,343.417 91.962 C 332.812 86.525,331.250 85.097,331.250 80.842 C 331.250 73.557,339.395 71.658,352.436 75.904 C 357.531 77.563,357.977 77.328,360.316 71.750 C 362.488 66.572,362.432 65.627,359.878 64.285 C 354.570 61.496,342.882 59.533,336.390 60.340 M156.770 61.539 C 155.872 61.777,154.934 62.759,154.693 63.714 C 154.432 64.751,154.416 132.608,154.677 133.546 C 155.257 135.636,156.044 135.898,161.952 135.968 C 171.106 136.077,170.389 137.186,170.500 122.750 C 170.613 108.091,169.858 109.335,178.750 109.148 C 184.518 109.027,185.179 108.959,188.417 108.147 C 195.697 106.321,201.116 102.156,203.812 96.314 C 206.988 89.435,207.008 79.453,203.859 73.226 C 200.435 66.453,194.628 62.833,185.172 61.574 C 182.999 61.284,157.848 61.254,156.770 61.539 M222.606 61.574 C 221.738 61.888,221.067 62.566,220.711 63.487 C 220.311 64.524,220.247 132.423,220.646 133.583 C 221.368 135.688,222.024 135.917,227.333 135.917 C 231.968 135.917,232.442 135.854,233.270 135.127 C 234.307 134.216,234.243 135.715,234.338 110.167 C 234.429 85.633,234.432 85.523,235.111 85.263 C 236.000 84.921,236.902 86.957,239.262 94.632 C 239.959 96.897,241.191 100.888,242.001 103.500 C 243.654 108.835,248.215 123.669,249.915 129.246 C 251.998 136.075,251.772 135.917,259.417 135.917 C 265.057 135.917,265.131 135.906,266.315 134.907 C 267.323 134.058,267.999 132.125,278.089 101.250 C 282.825 86.757,283.824 84.330,284.801 84.940 C 285.503 85.379,285.511 85.635,285.548 110.250 C 285.587 136.331,285.494 134.237,286.666 135.224 C 287.421 135.859,287.964 135.917,293.171 135.917 L 297.926 135.917 298.755 135.491 C 299.351 135.185,299.700 134.858,300.000 134.324 L 300.417 133.583 300.460 99.006 C 300.508 60.626,300.581 63.211,299.419 62.191 C 298.447 61.338,298.194 61.318,288.961 61.369 L 280.417 61.417 279.612 61.890 C 278.019 62.826,278.506 61.449,263.727 106.758 C 261.423 113.824,261.010 114.667,259.856 114.667 C 258.647 114.667,258.346 113.872,253.280 97.333 C 252.732 95.544,249.443 84.917,245.980 73.750 C 242.496 62.514,242.585 62.728,240.992 61.833 L 240.250 61.417 231.750 61.379 C 224.826 61.349,223.131 61.385,222.606 61.574 M182.250 74.811 C 187.326 76.157,190.167 79.813,190.167 85.000 C 190.167 92.143,184.906 96.183,175.632 96.163 C 170.530 96.152,170.583 96.269,170.583 85.167 L 170.583 76.917 171.000 76.092 C 171.826 74.457,172.285 74.332,177.167 74.403 C 180.341 74.449,181.121 74.512,182.250 74.811 " stroke="none" fill="#fff" fill-rule="evenodd"></path>
    </g>
</svg>